# xmcd
#
# Track frame offsets:
#	150
#	15801
#	38971
#	55598
#	71896
#	91865
#	110676
#	135518
#	155069
#	172849
#	192939
#	205744
#	225252
#	245445
#	265507
#	281567
#
# Disc length: 4032 seconds
#
# Revision: 1
# Processed by: cddbd v1.5.2PL0 Copyright (c) Steve Scherf et al.
# Submitted via: audiograbber 1.83.01
#
DISCID=ca0fbe10
DTITLE=Hoeváth Attila (szerzö) - Skandináv éjszakák
DYEAR=2008
DGENRE=Pop
TTITLE0=Bojtorján - Csavargódal
TTITLE1=Charlie - Skandináv éjszakák
TTITLE2=Cserháti Zsuzsa - Akad amit nem gyógyit meg az idö sem
TTITLE3=Balázs Fecó - Ezüst Nap
TTITLE4=100 Folk Celsius - Filo Zsófia
TTITLE5=Kern András - Lövölde tér
TTITLE6=Lerch István - Az ördög tegnap a városban járt
TTITLE7=100 Folk Celsius - Janka, a lelkisegély
TTITLE8=Bojtorján - Gonosz egy év
TTITLE9=Charlie - Egy szippantás a jóból
TTITLE10=Bojtorján - Vigyázz magadra, fiam
TTITLE11=Cserháti Zsuzsa - Te csak szeliden ringasd el
TTITLE12=Roy and Ádám - Vagy az ördög van velem
TTITLE13=Charlie - Ha mégis jön a Rolling Stones
TTITLE14=Marathon - Soha többé nem hallgatok bluest
TTITLE15=Various Artist - Összetartozunk
EXTD=Életmû 4.
EXTT0=
EXTT1=
EXTT2=
EXTT3=
EXTT4=
EXTT5=
EXTT6=
EXTT7=
EXTT8=
EXTT9=
EXTT10=
EXTT11=
EXTT12=
EXTT13=
EXTT14=
EXTT15=
PLAYORDER=
